<mxfile host="app.diagrams.net" agent="Mozilla/5.0 (Windows NT 10.0; Win64; x64) AppleWebKit/537.36 (KHTML, like Gecko) Chrome/131.0.0.0 Safari/537.36" version="26.0.6">
  <diagram name="Page-1" id="UCwXFM2GhY4PhaBf48l-">
    <mxGraphModel dx="1588" dy="840" grid="1" gridSize="10" guides="1" tooltips="1" connect="1" arrows="1" fold="1" page="1" pageScale="1" pageWidth="850" pageHeight="1100" math="0" shadow="0">
      <root>
        <mxCell id="0" />
        <mxCell id="1" parent="0" />
        <mxCell id="s-lG2dINcryOP1rzXfWL-74" style="edgeStyle=orthogonalEdgeStyle;rounded=0;orthogonalLoop=1;jettySize=auto;html=1;exitX=0.25;exitY=1;exitDx=0;exitDy=0;entryX=0.25;entryY=0;entryDx=0;entryDy=0;" edge="1" parent="1" source="s-lG2dINcryOP1rzXfWL-54" target="s-lG2dINcryOP1rzXfWL-55">
          <mxGeometry relative="1" as="geometry" />
        </mxCell>
        <mxCell id="s-lG2dINcryOP1rzXfWL-54" value="View shows updated job listings or status." style="whiteSpace=wrap;strokeWidth=2;" vertex="1" parent="1">
          <mxGeometry x="309" y="370" width="260" height="102" as="geometry" />
        </mxCell>
        <mxCell id="s-lG2dINcryOP1rzXfWL-75" style="edgeStyle=orthogonalEdgeStyle;rounded=0;orthogonalLoop=1;jettySize=auto;html=1;exitX=0.25;exitY=1;exitDx=0;exitDy=0;entryX=0.25;entryY=0;entryDx=0;entryDy=0;" edge="1" parent="1" source="s-lG2dINcryOP1rzXfWL-55" target="s-lG2dINcryOP1rzXfWL-56">
          <mxGeometry relative="1" as="geometry" />
        </mxCell>
        <mxCell id="s-lG2dINcryOP1rzXfWL-76" style="edgeStyle=orthogonalEdgeStyle;rounded=0;orthogonalLoop=1;jettySize=auto;html=1;exitX=0.75;exitY=0;exitDx=0;exitDy=0;entryX=0.75;entryY=1;entryDx=0;entryDy=0;" edge="1" parent="1" source="s-lG2dINcryOP1rzXfWL-55" target="s-lG2dINcryOP1rzXfWL-54">
          <mxGeometry relative="1" as="geometry" />
        </mxCell>
        <mxCell id="s-lG2dINcryOP1rzXfWL-55" value="Controller retrieves/updates job listings and displays application feedback.    " style="whiteSpace=wrap;strokeWidth=2;" vertex="1" parent="1">
          <mxGeometry x="309" y="539" width="260" height="102" as="geometry" />
        </mxCell>
        <mxCell id="s-lG2dINcryOP1rzXfWL-77" style="edgeStyle=orthogonalEdgeStyle;rounded=0;orthogonalLoop=1;jettySize=auto;html=1;exitX=0.75;exitY=0;exitDx=0;exitDy=0;entryX=0.75;entryY=1;entryDx=0;entryDy=0;" edge="1" parent="1" source="s-lG2dINcryOP1rzXfWL-56" target="s-lG2dINcryOP1rzXfWL-55">
          <mxGeometry relative="1" as="geometry" />
        </mxCell>
        <mxCell id="s-lG2dINcryOP1rzXfWL-78" style="edgeStyle=orthogonalEdgeStyle;rounded=0;orthogonalLoop=1;jettySize=auto;html=1;exitX=1;exitY=0.5;exitDx=0;exitDy=0;entryX=0;entryY=0.5;entryDx=0;entryDy=0;startArrow=classic;startFill=1;" edge="1" parent="1" source="s-lG2dINcryOP1rzXfWL-56" target="s-lG2dINcryOP1rzXfWL-69">
          <mxGeometry relative="1" as="geometry" />
        </mxCell>
        <mxCell id="s-lG2dINcryOP1rzXfWL-56" value="Model provides job data or application status" style="whiteSpace=wrap;strokeWidth=2;" vertex="1" parent="1">
          <mxGeometry x="309" y="707" width="260" height="78" as="geometry" />
        </mxCell>
        <mxCell id="s-lG2dINcryOP1rzXfWL-69" value="" style="shape=datastore;whiteSpace=wrap;html=1;" vertex="1" parent="1">
          <mxGeometry x="669" y="716" width="60" height="60" as="geometry" />
        </mxCell>
        <mxCell id="s-lG2dINcryOP1rzXfWL-73" value="" style="edgeStyle=orthogonalEdgeStyle;rounded=0;orthogonalLoop=1;jettySize=auto;html=1;startArrow=classic;startFill=1;" edge="1" parent="1" source="s-lG2dINcryOP1rzXfWL-72" target="s-lG2dINcryOP1rzXfWL-54">
          <mxGeometry relative="1" as="geometry" />
        </mxCell>
        <mxCell id="s-lG2dINcryOP1rzXfWL-72" value="" style="sketch=0;outlineConnect=0;fontColor=#232F3E;gradientColor=none;fillColor=#232F3D;strokeColor=none;dashed=0;verticalLabelPosition=bottom;verticalAlign=top;align=center;html=1;fontSize=12;fontStyle=0;aspect=fixed;pointerEvents=1;shape=mxgraph.aws4.user;" vertex="1" parent="1">
          <mxGeometry x="70" y="382" width="78" height="78" as="geometry" />
        </mxCell>
        <mxCell id="s-lG2dINcryOP1rzXfWL-79" value="User Interacts With Interface" style="text;html=1;align=center;verticalAlign=middle;resizable=0;points=[];autosize=1;strokeColor=none;fillColor=none;" vertex="1" parent="1">
          <mxGeometry x="131" y="392" width="180" height="30" as="geometry" />
        </mxCell>
        <mxCell id="s-lG2dINcryOP1rzXfWL-80" value="Request Data" style="text;html=1;align=center;verticalAlign=middle;resizable=0;points=[];autosize=1;strokeColor=none;fillColor=none;" vertex="1" parent="1">
          <mxGeometry x="249" y="480" width="100" height="30" as="geometry" />
        </mxCell>
        <mxCell id="s-lG2dINcryOP1rzXfWL-81" value="Retrieve Data to Display" style="text;html=1;align=center;verticalAlign=middle;resizable=0;points=[];autosize=1;strokeColor=none;fillColor=none;" vertex="1" parent="1">
          <mxGeometry x="509" y="480" width="150" height="30" as="geometry" />
        </mxCell>
        <mxCell id="s-lG2dINcryOP1rzXfWL-82" value="Request Data from Model" style="text;html=1;align=center;verticalAlign=middle;resizable=0;points=[];autosize=1;strokeColor=none;fillColor=none;" vertex="1" parent="1">
          <mxGeometry x="199" y="651" width="160" height="30" as="geometry" />
        </mxCell>
        <mxCell id="s-lG2dINcryOP1rzXfWL-83" value="Retrieve Data from DB" style="text;html=1;align=center;verticalAlign=middle;resizable=0;points=[];autosize=1;strokeColor=none;fillColor=none;" vertex="1" parent="1">
          <mxGeometry x="509" y="651" width="140" height="30" as="geometry" />
        </mxCell>
        <mxCell id="s-lG2dINcryOP1rzXfWL-84" value="Add/Retrieve&amp;nbsp;&lt;div&gt;data from DB&lt;/div&gt;" style="text;html=1;align=center;verticalAlign=middle;resizable=0;points=[];autosize=1;strokeColor=none;fillColor=none;" vertex="1" parent="1">
          <mxGeometry x="569" y="745" width="100" height="40" as="geometry" />
        </mxCell>
      </root>
    </mxGraphModel>
  </diagram>
</mxfile>
